<svg width="350" height="350" viewBox="0 0 350 350" fill="none" xmlns="http://www.w3.org/2000/svg">
<path d="M295.299 82.6004L240.399 50.9004L194.799 24.6004C182.499 17.5004 167.299 17.5004 154.999 24.6004L54.5992 82.6004C42.2992 89.7004 34.6992 102.8 34.6992 117V233C34.6992 247.2 42.2992 260.3 54.5992 267.4L145.699 320L154.999 325.4C167.299 332.5 182.399 332.5 194.699 325.4L240.299 299.1L295.099 267.5C307.399 260.4 314.999 247.3 314.999 233.1V117C315.199 102.8 307.599 89.7004 295.299 82.6004ZM262.199 217.7C262.199 222.4 259.699 226.8 255.599 229.2L186.999 268.8C181.699 271.9 175.099 268 175.099 261.9V175L99.8992 131.5C94.5992 128.4 94.5992 120.8 99.8992 117.7L163.199 81.1004C168.499 78.0004 175.099 81.9004 175.099 88.0004V175L250.399 131.5C255.699 128.4 262.299 132.3 262.299 138.4V217.7H262.199Z" fill="white"/>
<path d="M295.299 82.6004L240.399 50.9004L194.799 24.6004C182.499 17.5004 167.299 17.5004 154.999 24.6004L54.5992 82.6004C42.2992 89.7004 34.6992 102.8 34.6992 117V233C34.6992 247.2 42.2992 260.3 54.5992 267.4L145.699 320L154.999 325.4C167.299 332.5 182.399 332.5 194.699 325.4L240.299 299.1L295.099 267.5C307.399 260.4 314.999 247.3 314.999 233.1V117C315.199 102.8 307.599 89.7004 295.299 82.6004ZM262.199 217.7C262.199 222.4 259.699 226.8 255.599 229.2L186.999 268.8C181.699 271.9 175.099 268 175.099 261.9V175L99.8992 131.5C94.5992 128.4 94.5992 120.8 99.8992 117.7L163.199 81.1004C168.499 78.0004 175.099 81.9004 175.099 88.0004V175L250.399 131.5C255.699 128.4 262.299 132.3 262.299 138.4V217.7H262.199Z" fill="white"/>
</svg>
